<svg xmlns="http://www.w3.org/2000/svg"  viewBox="0 0 48 48" width="48px" height="48px" baseProfile="basic"><linearGradient id="nEMlugcHH7Jiqpgfnu_pwa" x1="24.945" x2="24.945" y1="-32.787" y2="100.319" gradientUnits="userSpaceOnUse"><stop offset="0" stop-color="#f44f5a"/><stop offset=".443" stop-color="#ee3d4a"/><stop offset="1" stop-color="#e52030"/></linearGradient><path fill="url(#nEMlugcHH7Jiqpgfnu_pwa)" d="M46,11.06v0.1c-0.35,0.53-0.74,1.03-1.15,1.51c-0.9,1.06-1.94,2-3.07,2.8 c0.02,0.36,0.03,0.73,0.03,1.1c0,0.58-0.02,1.17-0.08,1.76c-0.14,1.89-0.51,3.8-1.13,5.67c-0.62,1.96-1.5,3.87-2.63,5.67 c-1.29,2.09-2.91,4.01-4.84,5.66C29.12,38.76,23.77,41,17.17,41c-4.89,0-9.44-1.42-13.28-3.85c0.68,0.08,1.37,0.12,2.07,0.12 c2.89,0,5.62-0.7,8.02-1.94c0.97-0.49,1.88-1.07,2.73-1.73c-2.97-0.06-5.58-1.61-7.09-3.93c-0.42-0.63-0.75-1.31-0.99-2.04 c0.53,0.1,1.07,0.16,1.63,0.16c0.79,0,1.55-0.11,2.28-0.31c-2.21-0.44-4.12-1.71-5.37-3.48c-0.99-1.4-1.58-3.1-1.58-4.94v-0.1 c1.17,0.64,2.51,1.03,3.93,1.07c-0.71-0.47-1.35-1.04-1.89-1.7c-1.23-1.48-1.96-3.37-1.96-5.44c0-0.07,0-0.15,0.01-0.22 c0.03-1.49,0.45-2.9,1.16-4.1c1.27,1.53,2.71,2.91,4.31,4.1c3.8,2.84,8.47,4.62,13.54,4.87c-0.15-0.63-0.23-1.29-0.23-1.96 c0-1.02,0.18-2,0.52-2.91C26.18,9.36,29.37,7,33.12,7c2.49,0,4.74,1.04,6.32,2.71c1.97-0.38,3.82-1.1,5.5-2.09 c-0.65,2.01-2.02,3.7-3.81,4.76C42.85,12.17,44.48,11.73,46,11.06z"/><linearGradient id="nEMlugcHH7Jiqpgfnu_pwb" x1="8.415" x2="8.415" y1="3.772" y2="19.823" gradientUnits="userSpaceOnUse"><stop offset="0" stop-color="#f44f5a"/><stop offset=".443" stop-color="#ee3d4a"/><stop offset="1" stop-color="#e52030"/></linearGradient><path fill="url(#nEMlugcHH7Jiqpgfnu_pwb)" d="M11.15,12.67H5.68 c0.03-1.49,0.45-2.9,1.16-4.1C8.11,10.1,9.55,11.48,11.15,12.67z"/><linearGradient id="nEMlugcHH7Jiqpgfnu_pwc" x1="35.49" x2="35.49" y1=".365" y2="22.562" gradientUnits="userSpaceOnUse"><stop offset="0" stop-color="#f44f5a"/><stop offset=".443" stop-color="#ee3d4a"/><stop offset="1" stop-color="#e52030"/></linearGradient><path fill="url(#nEMlugcHH7Jiqpgfnu_pwc)" d="M46,11.06v0.1 c-0.35,0.53-0.74,1.03-1.15,1.51H24.98C26.18,9.36,29.37,7,33.12,7c2.49,0,4.74,1.04,6.32,2.71c1.97-0.38,3.82-1.1,5.5-2.09 c-0.65,2.01-2.02,3.7-3.81,4.76C42.85,12.17,44.48,11.73,46,11.06z"/><linearGradient id="nEMlugcHH7Jiqpgfnu_pwd" x1="25.26" x2="25.26" y1="5.589" y2="35.647" gradientUnits="userSpaceOnUse"><stop offset="0" stop-color="#fed100"/><stop offset=".033" stop-color="#fcca00"/><stop offset=".221" stop-color="#f3a400"/><stop offset=".408" stop-color="#ec8601"/><stop offset=".592" stop-color="#e77101"/><stop offset=".771" stop-color="#e46401"/><stop offset=".941" stop-color="#e36001"/></linearGradient><path fill="url(#nEMlugcHH7Jiqpgfnu_pwd)" d="M41.78,15.47 c0.02,0.36,0.03,0.73,0.03,1.1c0,0.58-0.02,1.17-0.08,1.76H7.63c-1.23-1.48-1.96-3.37-1.96-5.44c0-0.07,0-0.15,0.01-0.22h5.47 c3.8,2.84,8.47,4.62,13.54,4.87c-0.15-0.63-0.23-1.29-0.23-1.96c0-1.02,0.18-2,0.52-2.91h19.87 C43.95,13.73,42.91,14.67,41.78,15.47z"/><linearGradient id="nEMlugcHH7Jiqpgfnu_pwe" x1="23.66" x2="23.66" y1="9.234" y2="43.015" gradientUnits="userSpaceOnUse"><stop offset="0" stop-color="#fede00"/><stop offset="1" stop-color="#ffd000"/></linearGradient><path fill="url(#nEMlugcHH7Jiqpgfnu_pwe)" d="M41.73,18.33 c-0.14,1.89-0.51,3.8-1.13,5.67H7.17c-0.99-1.4-1.58-3.1-1.58-4.94v-0.1c1.17,0.64,2.51,1.03,3.93,1.07 c-0.71-0.47-1.35-1.04-1.89-1.7H41.73z"/><linearGradient id="nEMlugcHH7Jiqpgfnu_pwf" x1="23.885" x2="23.885" y1="6.725" y2="53.018" gradientUnits="userSpaceOnUse"><stop offset="0" stop-color="#21ad64"/><stop offset="1" stop-color="#088242"/></linearGradient><path fill="url(#nEMlugcHH7Jiqpgfnu_pwf)" d="M40.6,24c-0.62,1.96-1.5,3.87-2.63,5.67 H9.62c-0.42-0.63-0.75-1.31-0.99-2.04c0.53,0.1,1.07,0.16,1.63,0.16c0.79,0,1.55-0.11,2.28-0.31c-2.21-0.44-4.12-1.71-5.37-3.48 H40.6z"/><linearGradient id="nEMlugcHH7Jiqpgfnu_pwg" x1="23.795" x2="23.795" y1="12.16" y2="53.662" gradientUnits="userSpaceOnUse"><stop offset=".115" stop-color="#0d62ab"/><stop offset="1" stop-color="#007ad9"/></linearGradient><path fill="url(#nEMlugcHH7Jiqpgfnu_pwg)" d="M37.97,29.67 c-1.29,2.09-2.91,4.01-4.84,5.66H13.98c0.97-0.49,1.88-1.07,2.73-1.73c-2.97-0.06-5.58-1.61-7.09-3.93H37.97z"/><linearGradient id="nEMlugcHH7Jiqpgfnu_pwh" x1="18.51" x2="18.51" y1="26.596" y2="58.652" gradientUnits="userSpaceOnUse"><stop offset="0" stop-color="#9c55d4"/><stop offset=".002" stop-color="#9c55d4"/><stop offset=".003" stop-color="#9c55d4"/><stop offset=".111" stop-color="#9753d1"/><stop offset=".242" stop-color="#884ec8"/><stop offset=".383" stop-color="#7046ba"/><stop offset=".521" stop-color="#513ca7"/><stop offset=".672" stop-color="#3c359a"/><stop offset=".756" stop-color="#2e3192"/><stop offset="1" stop-color="#2e3192"/></linearGradient><path fill="url(#nEMlugcHH7Jiqpgfnu_pwh)" d="M33.13,35.33 C29.12,38.76,23.77,41,17.17,41c-4.89,0-9.44-1.42-13.28-3.85c0.68,0.08,1.37,0.12,2.07,0.12c2.89,0,5.62-0.7,8.02-1.94H33.13z"/><path fill="none" d="M17.17,41c6.6,0,11.95-2.24,15.96-5.67c1.93-1.65,3.55-3.57,4.84-5.66c1.13-1.8,2.01-3.71,2.63-5.67 c0.62-1.87,0.99-3.78,1.13-5.67c0.06-0.59,0.08-1.18,0.08-1.76c0-0.37-0.01-0.74-0.03-1.1c1.13-0.8,2.17-1.74,3.07-2.8 c0.41-0.48,0.8-0.98,1.15-1.51c0.04-0.05,0.07-0.09,0.1-0.14c-0.03,0.01-0.07,0.03-0.1,0.04c-1.52,0.67-3.15,1.11-4.87,1.32 c1.79-1.06,3.16-2.75,3.81-4.76c-1.68,0.99-3.53,1.71-5.5,2.09C37.86,8.04,35.61,7,33.12,7c-3.75,0-6.94,2.36-8.14,5.67 c-0.34,0.91-0.52,1.89-0.52,2.91c0,0.67,0.08,1.33,0.23,1.96c-5.07-0.25-9.74-2.03-13.54-4.87c-1.6-1.19-3.04-2.57-4.31-4.1 c-0.71,1.2-1.13,2.61-1.16,4.1c-0.01,0.07-0.01,0.15-0.01,0.22c0,2.07,0.73,3.96,1.96,5.44c0.54,0.66,1.18,1.23,1.89,1.7 c-1.42-0.04-2.76-0.43-3.93-1.07c0,0.03,0,0.07,0,0.1c0,1.84,0.59,3.54,1.58,4.94c1.25,1.77,3.16,3.04,5.37,3.48 c-0.73,0.2-1.49,0.31-2.28,0.31c-0.56,0-1.1-0.06-1.63-0.16c0.24,0.73,0.57,1.41,0.99,2.04c1.51,2.32,4.12,3.87,7.09,3.93 c-0.85,0.66-1.76,1.24-2.73,1.73c-2.4,1.24-5.13,1.94-8.02,1.94c-0.7,0-1.39-0.04-2.07-0.12C7.73,39.58,12.28,41,17.17,41"/></svg>